<?xml version="1.0" encoding="utf-8"?>
<!-- Generator: Adobe Illustrator 28.0.0, SVG Export Plug-In . SVG Version: 6.00 Build 0)  -->
<svg version="1.1" id="Layer_1" xmlns="http://www.w3.org/2000/svg" xmlns:xlink="http://www.w3.org/1999/xlink" x="0px" y="0px"
	 viewBox="0 0 610.3 598.9" style="enable-background:new 0 0 610.3 598.9;" xml:space="preserve">
<style type="text/css">
	.st0{fill:#FF0000;}
	.st1{fill:#FFFFFF;}
	.st2{fill:#00A551;}
	.st3{fill:#00ADEE;}
	.st4{fill:#FF7800;}
</style>
<g>
	<path class="st0" d="M63.6,359.2c5.3,11.8,18.4,21,18.4,21c-31.5-7.9-53.9-26.3-67-53.9c-3.9-7.9-6.6-15.8-7.9-23.7
		c1.3-7.9,3.9-15.8,7.9-23.7c31.5-67,124.9-134.1,276-195.8c53.9-22.3,105.1-39.4,143.3-52.6c34.2-10.5,59.1-18.4,65.7-19.7
		l-23.7,51.3l44.7,21c-3.9,1.3-101.2,27.6-202.4,69.7C189.7,206.8,38.6,293.5,63.6,359.2z"/>
	<path class="st1" d="M480.2,201.5c0,48.6-3.9,106.5-19.7,141.9c-38.1,86.7-130.1,153.8-165.6,177.4
		c-35.5-23.7-127.5-90.7-166.9-178.7c-21-46-21-134.1-18.4-184c88.1-10.5,155.1-42.1,185.3-57.8c28.9,15.8,97.3,47.3,185.3,57.8
		C480.2,170,480.2,185.8,480.2,201.5z"/>
	<path class="st2" d="M535.4,127.9l-1.3-25l-25-1.3c-13.1-1.3-25-2.6-36.8-3.9c-52.6-7.9-95.9-23.7-123.5-36.8
		C325.1,50.4,312,42.5,312,41.2l-15.8-10.5l-15.8,10.5c-1.3,0-84.1,52.6-198.5,60.5L55.7,103l-2.6,25c0,3.9-3.9,47.3-2.6,99.9
		c1.3,34.2,3.9,71,11.8,102.5c2.6,13.1,6.6,25,11.8,35.5c2.6,5.3,3.9,9.2,6.6,14.5c14.5,27.6,31.5,52.6,51.3,76.2
		c64.4,74.9,143.3,120.9,147.2,123.5l14.5,7.9L308,580c2.6-1.3,40.7-23.7,84.1-60.5s93.3-89.4,120.9-153.8
		c7.9-18.4,14.5-42.1,18.4-65.7c5.3-31.5,6.6-64.4,6.6-93.3C539.3,164.7,535.4,131.9,535.4,127.9z M460.5,343.5
		c-38.1,86.7-130.1,153.8-165.6,177.4c-19.7-13.1-55.2-38.1-89.4-72.3c-1.3-1.3-2.6-2.6-5.3-5.3l0,0c-1.3-1.3-3.9-3.9-5.3-5.3
		c-1.3-1.3-3.9-3.9-5.3-5.3c-1.3-1.3-3.9-3.9-5.3-5.3s-2.6-2.6-3.9-5.3c-2.6-3.9-6.6-7.9-9.2-10.5c-3.9-5.3-7.9-9.2-10.5-14.5
		c-1.3-2.6-3.9-5.3-5.3-7.9c-1.3-2.6-2.6-3.9-3.9-6.6c0-1.3-1.3-1.3-1.3-2.6c-3.9-1.3-3.9-3.9-5.3-5.3c-1.3-2.6-2.6-3.9-3.9-6.6
		c-1.3-2.6-3.9-6.6-5.3-9.2c-1.3-1.3-1.3-3.9-2.6-5.3c-1.3-2.6-2.6-6.6-5.3-9.2c-1.3-1.3-1.3-2.6-1.3-3.9c-1.3-2.6-2.6-6.6-3.9-10.5
		c0-1.3-1.3-2.6-1.3-3.9l0,0c-3.9-15.8-7.9-35.5-9.2-53.9c-2.6-21-2.6-42.1-2.6-61.8v-1.3l0,0c0-9.2,0-17.1,0-26.3
		c0-7.9,0-14.5,1.3-21c5.3,0,10.5-1.3,17.1-2.6c9.2-1.3,17.1-2.6,25-3.9c26.3-5.3,48.6-11.8,69.7-18.4
		c32.9-11.8,57.8-23.7,73.6-31.5c11.8,6.6,31.5,15.8,56.5,26.3c5.3,1.3,10.5,3.9,15.8,5.3c1.3,0,2.6,1.3,3.9,1.3
		c13.1,3.9,27.6,9.2,43.4,13.1c21,5.3,43.4,9.2,67,11.8l0,0c0,11.8,1.3,27.6,1.3,43.4c0,13.1,0,26.3-1.3,40.7c0,1.3,0,2.6,0,2.6
		c-1.3,14.5-2.6,30.2-3.9,44.7C472.3,309.3,467,327.7,460.5,343.5C461.8,342.2,460.5,342.2,460.5,343.5z"/>
	<g>
		<g>
			<path class="st3" d="M268.6,205.5c0,43.4-35.5,78.9-78.9,80.2h-1.3h-1.3l0,0c-43.4-1.3-78.9-38.1-78.9-80.2
				c0-23.7,10.5-44.7,26.3-59.1c14.5-13.1,32.9-21,53.9-21c6.6,0,14.5,1.3,21,2.6C242.3,137.1,268.6,168.7,268.6,205.5z"/>
			<path class="st3" d="M268.6,364.5c0,39.4-30.2,73.6-68.3,78.9c-27.6-28.9-55.2-63.1-72.3-101.2c-2.6-6.6-5.3-13.1-6.6-19.7
				c3.9-6.6,9.2-11.8,14.5-17.1c14.5-13.1,32.9-21,53.9-21l0,0c6.6,0,14.5,1.3,21,2.6C242.3,297.5,268.6,329,268.6,364.5z"/>
			<path class="st3" d="M281.7,181.8c0,30.2,26.3,57.8,57.8,57.8s57.8-26.3,57.8-56.5c0-31.5-26.3-57.8-57.8-57.8
				C308,124,283.1,150.3,281.7,181.8z"/>
			<path class="st3" d="M281.7,296.2c0,30.2,26.3,57.8,57.8,57.8s57.8-26.3,57.8-56.5c0-31.5-26.3-57.8-57.8-57.8
				S283.1,264.6,281.7,296.2z"/>
			<path class="st3" d="M478.9,159.5c0,3.9,0,6.6-1.3,10.5c-3.9,14.5-18.4,25-32.9,25l0,0c-18.4,0-35.5-15.8-35.5-35.5
				c0-7.9,2.6-14.5,6.6-21c6.6-7.9,17.1-14.5,27.6-14.5C463.1,125.3,478.9,141.1,478.9,159.5z"/>
			<path class="st3" d="M478.9,230.4L478.9,230.4c0,5.3-1.3,9.2-2.6,14.5c-5.3,11.8-18.4,21-31.5,21c-18.4,0-35.5-15.8-35.5-34.2
				l0,0v-1.3c1.3-18.4,17.1-32.9,35.5-32.9l0,0c15.8,0,28.9,10.5,32.9,25c1.3,2.6,1.3,5.3,1.3,9.2
				C478.9,229.1,478.9,229.1,478.9,230.4z"/>
			<rect x="281.7" y="294.8" class="st3" width="114.3" height="59.1"/>
			<rect x="409.2" y="230.4" class="st3" width="69.7" height="59.1"/>
		</g>
	</g>
	<path class="st2" d="M200.3,443.3c-3.9,0-6.6,1.3-10.5,1.3h-1.3h-1.3l0,0c-43.4-1.3-78.9-38.1-78.9-80.2c0-15.8,5.3-30.2,11.8-42.1
		c2.6,7.9,3.9,14.5,6.6,19.7C145.1,381.6,171.3,415.8,200.3,443.3z"/>
	<path class="st4" d="M610.3,248.8c-22.3,15.8-48.6,32.9-78.9,51.3c-22.3,13.1-46,27.6-71,42.1c-26.3,14.5-52.6,28.9-78.9,40.7
		c-65.7,31.5-123.5,53.9-173.5,64.4c-1.3,0-3.9,1.3-5.3,1.3c-9.2,2.6-18.4,3.9-27.6,5.3c-15.8,2.6-31.5,2.6-44.7,2.6
		c-1.3,0-2.6,0-3.9,0c-13.1,0-23.7-2.6-35.5-5.3c-36.8-9.2-64.4-31.5-78.9-64.4c-13.1-27.6-15.8-56.5-7.9-85.4
		c1.3,7.9,3.9,15.8,7.9,23.7c13.1,27.6,35.5,46,67,53.9c9.2,2.6,18.4,3.9,30.2,3.9c3.9,0,6.6,0,10.5,0c9.2,0,18.4-1.3,27.6-2.6
		c9.2-1.3,19.7-2.6,30.2-5.3c19.7-3.9,42.1-10.5,65.7-18.4c6.6-2.6,13.1-3.9,19.7-6.6c1.3,0,1.3,0,2.6-1.3c2.6-1.3,3.9-1.3,6.6-2.6
		c2.6-1.3,5.3-2.6,9.2-3.9c6.6-2.6,11.8-5.3,18.4-7.9c15.8-6.6,32.9-14.5,48.6-22.3c9.2-3.9,17.1-9.2,26.3-13.1
		c3.9-2.6,9.2-5.3,13.1-6.6l0,0c2.6-1.3,3.9-2.6,6.6-3.9c3.9-2.6,7.9-3.9,13.1-6.6c2.6-1.3,5.3-2.6,6.6-3.9
		c9.2-5.3,19.7-10.5,28.9-15.8c3.9-2.6,7.9-3.9,10.5-6.6c1.3,0,1.3-1.3,2.6-1.3c5.3-2.6,10.5-6.6,15.8-9.2c1.3-1.3,2.6-1.3,5.3-2.6
		l0,0c21-13.1,40.7-25,59.1-38.1c11.8-7.9,22.3-14.5,31.5-22.3l-10.5,53.9L610.3,248.8z"/>
</g>
</svg>
