<?xml version="1.0" encoding="utf-8"?>
<!-- Generator: Adobe Illustrator 28.0.0, SVG Export Plug-In . SVG Version: 6.00 Build 0)  -->
<svg version="1.1" id="Layer_1" xmlns="http://www.w3.org/2000/svg" xmlns:xlink="http://www.w3.org/1999/xlink" x="0px" y="0px"
	 viewBox="0 0 108 44" style="enable-background:new 0 0 108 44;" xml:space="preserve">
<style type="text/css">
	.st0{fill:#BBBDBF;}
	.st1{fill:#E6E7E8;}
	.st2{fill:#FFFFFF;}
	.st3{fill:#D0D2D3;}
</style>
<g>
	<g>
		<g>
			<path class="st0" d="M46.1,8.4l1.2-0.1c0,0.2,0.1,0.4,0.2,0.5c0.1,0.2,0.3,0.3,0.6,0.3c0.2,0,0.3,0,0.4-0.1
				c0.1-0.1,0.2-0.2,0.2-0.3c0-0.1,0-0.2-0.1-0.3c-0.1-0.1-0.3-0.2-0.7-0.2c-0.6-0.1-1-0.3-1.2-0.5c-0.2-0.2-0.4-0.5-0.4-0.8
				c0-0.2,0.1-0.4,0.2-0.6c0.1-0.2,0.3-0.3,0.6-0.5c0.3-0.1,0.6-0.2,1-0.2c0.5,0,1,0.1,1.2,0.3c0.3,0.2,0.5,0.5,0.5,1l-1.2,0.1
				c0-0.2-0.1-0.3-0.2-0.4c-0.1-0.1-0.3-0.1-0.4-0.1c-0.2,0-0.3,0-0.3,0.1c-0.1,0.1-0.1,0.1-0.1,0.2c0,0.1,0,0.1,0.1,0.2
				C47.7,6.9,47.8,6.9,48,7c0.6,0.1,1,0.2,1.2,0.4c0.2,0.1,0.4,0.3,0.5,0.5S50,8.2,50,8.4c0,0.3-0.1,0.5-0.2,0.8
				c-0.2,0.2-0.4,0.4-0.6,0.5c-0.3,0.1-0.6,0.2-1,0.2c-0.7,0-1.2-0.1-1.5-0.4C46.3,9.2,46.2,8.8,46.1,8.4z"/>
			<path class="st0" d="M51.6,7.7l-1.1-0.1c0-0.2,0.1-0.4,0.2-0.5C50.8,7,50.9,6.9,51,6.9c0.1-0.1,0.3-0.1,0.4-0.1
				c0.2,0,0.4,0,0.6,0c0.4,0,0.6,0,0.9,0.1c0.2,0,0.4,0.1,0.5,0.2c0.1,0.1,0.2,0.2,0.2,0.4c0.1,0.2,0.1,0.3,0.1,0.5v1.4
				c0,0.1,0,0.3,0,0.3c0,0.1,0.1,0.2,0.1,0.3h-1.1c0-0.1-0.1-0.1-0.1-0.2c0,0,0-0.1,0-0.2c-0.2,0.1-0.3,0.3-0.5,0.3
				c-0.2,0.1-0.5,0.1-0.7,0.1c-0.4,0-0.6-0.1-0.8-0.3c-0.2-0.2-0.3-0.4-0.3-0.6c0-0.2,0.1-0.4,0.2-0.6c0.1-0.2,0.4-0.3,0.8-0.3
				c0.4-0.1,0.7-0.2,0.9-0.2c0.1,0,0.3-0.1,0.4-0.1c0-0.1,0-0.2-0.1-0.3c-0.1-0.1-0.2-0.1-0.3-0.1c-0.2,0-0.3,0-0.4,0.1
				C51.7,7.5,51.7,7.6,51.6,7.7z M52.7,8.4c-0.2,0.1-0.3,0.1-0.5,0.2c-0.2,0.1-0.4,0.1-0.5,0.2c-0.1,0.1-0.1,0.1-0.1,0.2
				c0,0.1,0,0.2,0.1,0.2c0.1,0.1,0.2,0.1,0.3,0.1c0.1,0,0.3,0,0.4-0.1c0.1-0.1,0.2-0.1,0.2-0.2c0-0.1,0.1-0.2,0.1-0.4V8.4z"/>
			<path class="st0" d="M55.8,5.6v1.2h0.6v0.9h-0.6v1.1c0,0.1,0,0.2,0,0.3c0,0.1,0.1,0.1,0.2,0.1c0.1,0,0.2,0,0.4-0.1l0.1,0.8
				c-0.3,0.1-0.6,0.1-0.8,0.1c-0.3,0-0.5,0-0.6-0.1c-0.1-0.1-0.2-0.2-0.3-0.3c-0.1-0.2-0.1-0.4-0.1-0.7V7.6h-0.4V6.7h0.4V6.2
				L55.8,5.6z"/>
			<path class="st0" d="M60.3,9.8h-1.1V9.3c-0.2,0.2-0.3,0.4-0.5,0.4c-0.2,0.1-0.4,0.1-0.6,0.1c-0.3,0-0.6-0.1-0.8-0.3
				C57.1,9.4,57,9.1,57,8.7v-2h1.2v1.7c0,0.2,0,0.3,0.1,0.4C58.4,8.9,58.5,9,58.6,9c0.1,0,0.3-0.1,0.3-0.2c0.1-0.1,0.1-0.3,0.1-0.6
				V6.7h1.2V9.8z"/>
			<path class="st0" d="M62.1,7.7l-1.1-0.1c0-0.2,0.1-0.4,0.2-0.5c0.1-0.1,0.2-0.2,0.3-0.3c0.1-0.1,0.3-0.1,0.4-0.1
				c0.2,0,0.4,0,0.6,0c0.4,0,0.6,0,0.9,0.1c0.2,0,0.4,0.1,0.5,0.2c0.1,0.1,0.2,0.2,0.2,0.4c0.1,0.2,0.1,0.3,0.1,0.5v1.4
				c0,0.1,0,0.3,0,0.3c0,0.1,0.1,0.2,0.1,0.3h-1.1c0-0.1-0.1-0.1-0.1-0.2c0,0,0-0.1,0-0.2c-0.2,0.1-0.3,0.3-0.5,0.3
				c-0.2,0.1-0.5,0.1-0.7,0.1c-0.4,0-0.6-0.1-0.8-0.3c-0.2-0.2-0.3-0.4-0.3-0.6c0-0.2,0.1-0.4,0.2-0.6c0.1-0.2,0.4-0.3,0.8-0.3
				c0.4-0.1,0.7-0.2,0.9-0.2c0.1,0,0.3-0.1,0.4-0.1c0-0.1,0-0.2-0.1-0.3c-0.1-0.1-0.2-0.1-0.3-0.1c-0.2,0-0.3,0-0.4,0.1
				C62.2,7.5,62.1,7.6,62.1,7.7z M63.1,8.4c-0.2,0.1-0.3,0.1-0.5,0.2c-0.2,0.1-0.4,0.1-0.5,0.2C62.1,8.8,62,8.8,62,8.9
				c0,0.1,0,0.2,0.1,0.2c0.1,0.1,0.2,0.1,0.3,0.1c0.1,0,0.3,0,0.4-0.1C62.9,9.1,63,9,63,8.9c0-0.1,0.1-0.2,0.1-0.4V8.4z"/>
			<path class="st0" d="M64.9,6.7H66v0.5c0.2-0.2,0.3-0.4,0.5-0.4c0.2-0.1,0.4-0.1,0.6-0.1c0.3,0,0.6,0.1,0.8,0.3
				c0.2,0.2,0.3,0.5,0.3,0.9v2H67V8.1c0-0.2,0-0.3-0.1-0.4c-0.1-0.1-0.2-0.1-0.3-0.1c-0.1,0-0.3,0.1-0.3,0.2
				c-0.1,0.1-0.1,0.3-0.1,0.6v1.5h-1.2V6.7z"/>
			<path class="st0" d="M70.7,5.6h4v1h-1.3v3.2H72V6.6h-1.3V5.6z"/>
			<path class="st0" d="M78.1,9.8H77V9.3c-0.2,0.2-0.3,0.4-0.5,0.4c-0.2,0.1-0.4,0.1-0.6,0.1c-0.3,0-0.6-0.1-0.8-0.3
				c-0.2-0.2-0.3-0.5-0.3-0.9v-2h1.2v1.7c0,0.2,0,0.3,0.1,0.4C76.3,8.9,76.4,9,76.5,9c0.1,0,0.3-0.1,0.3-0.2C76.9,8.7,77,8.5,77,8.2
				V6.7h1.2V9.8z"/>
			<path class="st0" d="M81,6.7h1.1v2.9l0,0.1c0,0.2,0,0.4-0.1,0.6c-0.1,0.2-0.2,0.3-0.3,0.4s-0.3,0.2-0.5,0.2
				c-0.2,0-0.4,0.1-0.7,0.1c-0.6,0-1-0.1-1.3-0.3c-0.2-0.2-0.3-0.4-0.3-0.7c0,0,0-0.1,0-0.2l1.1,0.1c0,0.1,0.1,0.2,0.1,0.2
				c0.1,0.1,0.2,0.1,0.3,0.1c0.2,0,0.3,0,0.4-0.1c0.1-0.1,0.1-0.2,0.1-0.5V9.3c-0.1,0.1-0.2,0.2-0.3,0.3c-0.2,0.1-0.4,0.1-0.6,0.1
				c-0.4,0-0.7-0.2-1-0.5c-0.2-0.3-0.3-0.6-0.3-1c0-0.5,0.1-0.8,0.3-1.1c0.2-0.3,0.5-0.4,0.9-0.4c0.2,0,0.4,0,0.6,0.1
				C80.7,6.9,80.9,7,81,7.2V6.7z M79.9,8.2c0,0.2,0,0.4,0.1,0.5c0.1,0.1,0.2,0.2,0.4,0.2c0.1,0,0.3-0.1,0.4-0.2
				c0.1-0.1,0.1-0.3,0.1-0.5c0-0.2-0.1-0.4-0.2-0.5c-0.1-0.1-0.2-0.2-0.4-0.2S80.1,7.6,80,7.7C79.9,7.8,79.9,8,79.9,8.2z"/>
			<path class="st0" d="M83.9,7.7l-1.1-0.1c0-0.2,0.1-0.4,0.2-0.5C83,7,83.1,6.9,83.3,6.9c0.1-0.1,0.3-0.1,0.4-0.1
				c0.2,0,0.4,0,0.6,0c0.4,0,0.6,0,0.9,0.1c0.2,0,0.4,0.1,0.5,0.2c0.1,0.1,0.2,0.2,0.2,0.4c0.1,0.2,0.1,0.3,0.1,0.5v1.4
				c0,0.1,0,0.3,0,0.3c0,0.1,0.1,0.2,0.1,0.3h-1.1c0-0.1-0.1-0.1-0.1-0.2c0,0,0-0.1,0-0.2c-0.2,0.1-0.3,0.3-0.5,0.3
				c-0.2,0.1-0.5,0.1-0.7,0.1c-0.4,0-0.6-0.1-0.8-0.3c-0.2-0.2-0.3-0.4-0.3-0.6c0-0.2,0.1-0.4,0.2-0.6c0.1-0.2,0.4-0.3,0.8-0.3
				c0.4-0.1,0.7-0.2,0.9-0.2c0.1,0,0.3-0.1,0.4-0.1c0-0.1,0-0.2-0.1-0.3c-0.1-0.1-0.2-0.1-0.3-0.1c-0.2,0-0.3,0-0.4,0.1
				C84,7.5,83.9,7.6,83.9,7.7z M84.9,8.4c-0.2,0.1-0.3,0.1-0.5,0.2c-0.2,0.1-0.4,0.1-0.5,0.2c-0.1,0.1-0.1,0.1-0.1,0.2
				c0,0.1,0,0.2,0.1,0.2c0.1,0.1,0.2,0.1,0.3,0.1c0.1,0,0.3,0,0.4-0.1c0.1-0.1,0.2-0.1,0.2-0.2c0-0.1,0.1-0.2,0.1-0.4V8.4z"/>
			<path class="st0" d="M86.6,9l1.2-0.1c0,0.1,0.1,0.2,0.2,0.3s0.2,0.1,0.3,0.1c0.2,0,0.3,0,0.4-0.1C88.7,9.1,88.7,9,88.7,9
				c0-0.1,0-0.2-0.1-0.2c-0.1,0-0.2-0.1-0.5-0.1c-0.4-0.1-0.7-0.1-0.9-0.2c-0.2-0.1-0.3-0.2-0.4-0.3c-0.1-0.1-0.2-0.3-0.2-0.5
				c0-0.2,0.1-0.4,0.2-0.5C87,7,87.1,6.9,87.3,6.8c0.2-0.1,0.5-0.1,0.8-0.1c0.4,0,0.6,0,0.8,0.1c0.2,0.1,0.3,0.1,0.4,0.3
				c0.1,0.1,0.2,0.3,0.3,0.5l-1.1,0.1c0-0.1-0.1-0.2-0.1-0.2c-0.1-0.1-0.2-0.1-0.3-0.1c-0.1,0-0.2,0-0.3,0.1c-0.1,0-0.1,0.1-0.1,0.2
				c0,0.1,0,0.1,0.1,0.2c0.1,0,0.2,0.1,0.5,0.1c0.4,0,0.7,0.1,0.9,0.2c0.2,0.1,0.3,0.2,0.4,0.3s0.2,0.3,0.2,0.5
				c0,0.2-0.1,0.3-0.2,0.5c-0.1,0.2-0.3,0.3-0.5,0.4c-0.2,0.1-0.5,0.1-0.9,0.1c-0.6,0-1-0.1-1.2-0.2C86.8,9.5,86.6,9.3,86.6,9z"/>
		</g>
	</g>
	<g>
		<path class="st1" d="M46.4,12.7h2.2c0.5,0,0.8,0.1,1.1,0.3c0.2,0.2,0.4,0.5,0.4,1c0,0.4-0.1,0.8-0.4,1c-0.3,0.2-0.7,0.4-1.2,0.4
			h-0.7v1.6h-1.3V12.7z M47.7,14.5H48c0.3,0,0.4,0,0.5-0.1c0.1-0.1,0.2-0.2,0.2-0.3c0-0.1,0-0.2-0.1-0.3c-0.1-0.1-0.3-0.1-0.5-0.1
			h-0.4V14.5z"/>
		<path class="st1" d="M53.8,15.7h-2.4c0,0.2,0.1,0.3,0.2,0.4c0.1,0.1,0.3,0.2,0.4,0.2c0.1,0,0.2,0,0.3-0.1c0.1,0,0.1-0.1,0.2-0.2
			l1.2,0.1c-0.2,0.3-0.4,0.5-0.6,0.7C52.9,16.9,52.5,17,52,17c-0.4,0-0.7-0.1-1-0.2c-0.2-0.1-0.4-0.3-0.6-0.5
			c-0.2-0.2-0.2-0.5-0.2-0.9c0-0.5,0.2-0.9,0.5-1.2c0.3-0.3,0.7-0.4,1.3-0.4c0.4,0,0.8,0.1,1,0.2c0.3,0.1,0.4,0.3,0.6,0.6
			c0.1,0.3,0.2,0.6,0.2,1V15.7z M52.6,15.1c0-0.2-0.1-0.4-0.2-0.5c-0.1-0.1-0.2-0.1-0.4-0.1c-0.2,0-0.3,0.1-0.4,0.2
			c-0.1,0.1-0.1,0.2-0.1,0.4H52.6z"/>
		<path class="st1" d="M54.4,13.9h1.1v0.5c0.2-0.2,0.3-0.4,0.5-0.4c0.2-0.1,0.4-0.1,0.6-0.1c0.3,0,0.6,0.1,0.8,0.3
			c0.2,0.2,0.3,0.5,0.3,0.9v2h-1.2v-1.7c0-0.2,0-0.3-0.1-0.4c-0.1-0.1-0.2-0.1-0.3-0.1c-0.1,0-0.3,0.1-0.3,0.2
			c-0.1,0.1-0.1,0.3-0.1,0.6v1.5h-1.2V13.9z"/>
		<path class="st1" d="M60.6,15.7l1.1,0.1c-0.1,0.2-0.2,0.4-0.3,0.6c-0.1,0.2-0.3,0.3-0.5,0.4S60.4,17,60,17c-0.3,0-0.6,0-0.8-0.1
			c-0.2-0.1-0.4-0.2-0.6-0.3c-0.2-0.1-0.3-0.3-0.4-0.5c-0.1-0.2-0.1-0.4-0.1-0.7c0-0.3,0.1-0.6,0.2-0.8c0.1-0.2,0.2-0.3,0.3-0.4
			c0.1-0.1,0.3-0.2,0.4-0.3c0.2-0.1,0.5-0.1,0.9-0.1c0.5,0,0.9,0.1,1.1,0.3c0.3,0.2,0.4,0.4,0.6,0.8L60.6,15c0-0.1-0.1-0.2-0.2-0.3
			c-0.1-0.1-0.2-0.1-0.4-0.1c-0.2,0-0.4,0.1-0.5,0.2c-0.1,0.1-0.2,0.4-0.2,0.6c0,0.3,0.1,0.4,0.2,0.6c0.1,0.1,0.3,0.2,0.5,0.2
			c0.2,0,0.3,0,0.4-0.1C60.5,16,60.6,15.9,60.6,15.7z"/>
		<path class="st1" d="M65.7,15.7h-2.4c0,0.2,0.1,0.3,0.2,0.4c0.1,0.1,0.3,0.2,0.4,0.2c0.1,0,0.2,0,0.3-0.1c0.1,0,0.1-0.1,0.2-0.2
			l1.2,0.1c-0.2,0.3-0.4,0.5-0.6,0.7c-0.3,0.1-0.6,0.2-1.1,0.2c-0.4,0-0.7-0.1-1-0.2c-0.2-0.1-0.4-0.3-0.6-0.5
			c-0.2-0.2-0.2-0.5-0.2-0.9c0-0.5,0.2-0.9,0.5-1.2c0.3-0.3,0.7-0.4,1.3-0.4c0.4,0,0.8,0.1,1,0.2c0.3,0.1,0.4,0.3,0.6,0.6
			c0.1,0.3,0.2,0.6,0.2,1V15.7z M64.5,15.1c0-0.2-0.1-0.4-0.2-0.5c-0.1-0.1-0.2-0.1-0.4-0.1c-0.2,0-0.3,0.1-0.4,0.2
			c-0.1,0.1-0.1,0.2-0.1,0.4H64.5z"/>
		<path class="st1" d="M68.5,13.9h1.1v2.9l0,0.1c0,0.2,0,0.4-0.1,0.6c-0.1,0.2-0.2,0.3-0.3,0.4c-0.1,0.1-0.3,0.2-0.5,0.2
			c-0.2,0-0.4,0.1-0.7,0.1c-0.6,0-1-0.1-1.3-0.3c-0.2-0.2-0.3-0.4-0.3-0.7c0,0,0-0.1,0-0.2l1.1,0.1c0,0.1,0.1,0.2,0.1,0.2
			c0.1,0.1,0.2,0.1,0.3,0.1c0.2,0,0.3,0,0.4-0.1c0.1-0.1,0.1-0.2,0.1-0.5v-0.5c-0.1,0.1-0.2,0.2-0.3,0.3c-0.2,0.1-0.4,0.1-0.6,0.1
			c-0.4,0-0.7-0.2-1-0.5c-0.2-0.3-0.3-0.6-0.3-1c0-0.5,0.1-0.8,0.3-1.1c0.2-0.3,0.5-0.4,0.9-0.4c0.2,0,0.4,0,0.6,0.1
			c0.2,0.1,0.3,0.2,0.4,0.4V13.9z M67.4,15.3c0,0.2,0,0.4,0.1,0.5c0.1,0.1,0.2,0.2,0.4,0.2c0.1,0,0.3-0.1,0.4-0.2
			c0.1-0.1,0.1-0.3,0.1-0.5c0-0.2-0.1-0.4-0.2-0.5c-0.1-0.1-0.2-0.2-0.4-0.2c-0.2,0-0.3,0.1-0.4,0.2C67.4,14.9,67.4,15.1,67.4,15.3z
			"/>
		<path class="st1" d="M71.4,14.9l-1.1-0.1c0-0.2,0.1-0.4,0.2-0.5c0.1-0.1,0.2-0.2,0.3-0.3c0.1-0.1,0.3-0.1,0.4-0.1
			c0.2,0,0.4,0,0.6,0c0.4,0,0.6,0,0.9,0.1c0.2,0,0.4,0.1,0.5,0.2c0.1,0.1,0.2,0.2,0.2,0.4c0.1,0.2,0.1,0.3,0.1,0.5v1.4
			c0,0.1,0,0.3,0,0.3c0,0.1,0.1,0.2,0.1,0.3h-1.1c0-0.1-0.1-0.1-0.1-0.2c0,0,0-0.1,0-0.2c-0.2,0.1-0.3,0.3-0.5,0.3
			C71.8,17,71.6,17,71.3,17c-0.4,0-0.6-0.1-0.8-0.3c-0.2-0.2-0.3-0.4-0.3-0.6c0-0.2,0.1-0.4,0.2-0.6c0.1-0.2,0.4-0.3,0.8-0.3
			c0.4-0.1,0.7-0.2,0.9-0.2c0.1,0,0.3-0.1,0.4-0.1c0-0.1,0-0.2-0.1-0.3c-0.1-0.1-0.2-0.1-0.3-0.1c-0.2,0-0.3,0-0.4,0.1
			C71.5,14.6,71.4,14.7,71.4,14.9z M72.4,15.5c-0.2,0.1-0.3,0.1-0.5,0.2c-0.2,0.1-0.4,0.1-0.5,0.2c-0.1,0.1-0.1,0.1-0.1,0.2
			c0,0.1,0,0.2,0.1,0.2c0.1,0.1,0.2,0.1,0.3,0.1c0.1,0,0.3,0,0.4-0.1c0.1-0.1,0.2-0.1,0.2-0.2c0-0.1,0.1-0.2,0.1-0.4V15.5z"/>
		<path class="st1" d="M74.3,12.7h1.2v1.6c0.2-0.2,0.3-0.3,0.5-0.4c0.2-0.1,0.3-0.1,0.6-0.1c0.3,0,0.6,0.1,0.8,0.3
			c0.2,0.2,0.3,0.5,0.3,0.9v2h-1.2v-1.7c0-0.2,0-0.3-0.1-0.4c-0.1-0.1-0.2-0.1-0.3-0.1c-0.1,0-0.3,0.1-0.3,0.2
			c-0.1,0.1-0.1,0.3-0.1,0.6v1.5h-1.2V12.7z"/>
		<path class="st1" d="M79.3,14.9l-1.1-0.1c0-0.2,0.1-0.4,0.2-0.5c0.1-0.1,0.2-0.2,0.3-0.3c0.1-0.1,0.3-0.1,0.4-0.1
			c0.2,0,0.4,0,0.6,0c0.4,0,0.6,0,0.9,0.1c0.2,0,0.4,0.1,0.5,0.2c0.1,0.1,0.2,0.2,0.2,0.4c0.1,0.2,0.1,0.3,0.1,0.5v1.4
			c0,0.1,0,0.3,0,0.3c0,0.1,0.1,0.2,0.1,0.3h-1.1c0-0.1-0.1-0.1-0.1-0.2c0,0,0-0.1,0-0.2c-0.2,0.1-0.3,0.3-0.5,0.3
			C79.7,17,79.5,17,79.2,17c-0.4,0-0.6-0.1-0.8-0.3c-0.2-0.2-0.3-0.4-0.3-0.6c0-0.2,0.1-0.4,0.2-0.6c0.1-0.2,0.4-0.3,0.8-0.3
			c0.4-0.1,0.7-0.2,0.9-0.2c0.1,0,0.3-0.1,0.4-0.1c0-0.1,0-0.2-0.1-0.3c-0.1-0.1-0.2-0.1-0.3-0.1c-0.2,0-0.3,0-0.4,0.1
			C79.4,14.6,79.3,14.7,79.3,14.9z M80.3,15.5c-0.2,0.1-0.3,0.1-0.5,0.2c-0.2,0.1-0.4,0.1-0.5,0.2c-0.1,0.1-0.1,0.1-0.1,0.2
			c0,0.1,0,0.2,0.1,0.2c0.1,0.1,0.2,0.1,0.3,0.1c0.1,0,0.3,0,0.4-0.1c0.1-0.1,0.2-0.1,0.2-0.2c0-0.1,0.1-0.2,0.1-0.4V15.5z"/>
		<path class="st1" d="M82.2,13.9h1.1v0.5c0.2-0.2,0.3-0.4,0.5-0.4c0.2-0.1,0.4-0.1,0.6-0.1c0.3,0,0.6,0.1,0.8,0.3
			c0.2,0.2,0.3,0.5,0.3,0.9v2h-1.2v-1.7c0-0.2,0-0.3-0.1-0.4c-0.1-0.1-0.2-0.1-0.3-0.1c-0.1,0-0.3,0.1-0.3,0.2
			c-0.1,0.1-0.1,0.3-0.1,0.6v1.5h-1.2V13.9z"/>
	</g>
	<g>
		<path class="st1" d="M46.4,19.8h2.2c0.5,0,0.8,0.1,1.1,0.3c0.2,0.2,0.4,0.5,0.4,1c0,0.4-0.1,0.8-0.4,1c-0.3,0.2-0.7,0.4-1.2,0.4
			h-0.7V24h-1.3V19.8z M47.7,21.6H48c0.3,0,0.4,0,0.5-0.1c0.1-0.1,0.2-0.2,0.2-0.3c0-0.1,0-0.2-0.1-0.3c-0.1-0.1-0.3-0.1-0.5-0.1
			h-0.4V21.6z"/>
		<path class="st1" d="M53.8,22.8h-2.4c0,0.2,0.1,0.3,0.2,0.4c0.1,0.1,0.3,0.2,0.4,0.2c0.1,0,0.2,0,0.3-0.1c0.1,0,0.1-0.1,0.2-0.2
			l1.2,0.1c-0.2,0.3-0.4,0.5-0.6,0.7c-0.3,0.1-0.6,0.2-1.1,0.2c-0.4,0-0.7-0.1-1-0.2c-0.2-0.1-0.4-0.3-0.6-0.5
			c-0.2-0.2-0.2-0.5-0.2-0.9c0-0.5,0.2-0.9,0.5-1.2c0.3-0.3,0.7-0.4,1.3-0.4c0.4,0,0.8,0.1,1,0.2c0.3,0.1,0.4,0.3,0.6,0.6
			c0.1,0.3,0.2,0.6,0.2,1V22.8z M52.6,22.2c0-0.2-0.1-0.4-0.2-0.5c-0.1-0.1-0.2-0.1-0.4-0.1c-0.2,0-0.3,0.1-0.4,0.2
			c-0.1,0.1-0.1,0.2-0.1,0.4H52.6z"/>
		<path class="st1" d="M54.4,21h1.1v0.5c0.2-0.2,0.3-0.4,0.5-0.4c0.2-0.1,0.4-0.1,0.6-0.1c0.3,0,0.6,0.1,0.8,0.3
			c0.2,0.2,0.3,0.5,0.3,0.9v2h-1.2v-1.7c0-0.2,0-0.3-0.1-0.4c-0.1-0.1-0.2-0.1-0.3-0.1c-0.1,0-0.3,0.1-0.3,0.2
			c-0.1,0.1-0.1,0.3-0.1,0.6V24h-1.2V21z"/>
		<path class="st1" d="M59.4,22l-1.1-0.1c0-0.2,0.1-0.4,0.2-0.5c0.1-0.1,0.2-0.2,0.3-0.3c0.1-0.1,0.3-0.1,0.4-0.1c0.2,0,0.4,0,0.6,0
			c0.4,0,0.6,0,0.9,0.1c0.2,0,0.4,0.1,0.5,0.2c0.1,0.1,0.2,0.2,0.2,0.4c0.1,0.2,0.1,0.3,0.1,0.5v1.4c0,0.1,0,0.3,0,0.3
			c0,0.1,0.1,0.2,0.1,0.3h-1.1c0-0.1-0.1-0.1-0.1-0.2c0,0,0-0.1,0-0.2c-0.2,0.1-0.3,0.3-0.5,0.3c-0.2,0.1-0.5,0.1-0.7,0.1
			c-0.4,0-0.6-0.1-0.8-0.3c-0.2-0.2-0.3-0.4-0.3-0.6c0-0.2,0.1-0.4,0.2-0.6c0.1-0.2,0.4-0.3,0.8-0.3c0.4-0.1,0.7-0.2,0.9-0.2
			c0.1,0,0.3-0.1,0.4-0.1c0-0.1,0-0.2-0.1-0.3c-0.1-0.1-0.2-0.1-0.3-0.1c-0.2,0-0.3,0-0.4,0.1C59.5,21.7,59.4,21.8,59.4,22z
			 M60.4,22.6c-0.2,0.1-0.3,0.1-0.5,0.2c-0.2,0.1-0.4,0.1-0.5,0.2c-0.1,0.1-0.1,0.1-0.1,0.2c0,0.1,0,0.2,0.1,0.2
			c0.1,0.1,0.2,0.1,0.3,0.1c0.1,0,0.3,0,0.4-0.1c0.1-0.1,0.2-0.1,0.2-0.2c0-0.1,0.1-0.2,0.1-0.4V22.6z"/>
		<path class="st1" d="M62.3,21h1.1v0.5c0.2-0.2,0.3-0.4,0.5-0.4c0.2-0.1,0.4-0.1,0.6-0.1c0.3,0,0.6,0.1,0.8,0.3
			c0.2,0.2,0.3,0.5,0.3,0.9v2h-1.2v-1.7c0-0.2,0-0.3-0.1-0.4c-0.1-0.1-0.2-0.1-0.3-0.1c-0.1,0-0.3,0.1-0.3,0.2
			c-0.1,0.1-0.1,0.3-0.1,0.6V24h-1.2V21z"/>
		<path class="st1" d="M68.4,21h1.1v2.9l0,0.1c0,0.2,0,0.4-0.1,0.6c-0.1,0.2-0.2,0.3-0.3,0.4s-0.3,0.2-0.5,0.2
			c-0.2,0-0.4,0.1-0.7,0.1c-0.6,0-1-0.1-1.3-0.3c-0.2-0.2-0.3-0.4-0.3-0.7c0,0,0-0.1,0-0.2l1.1,0.1c0,0.1,0.1,0.2,0.1,0.2
			c0.1,0.1,0.2,0.1,0.3,0.1c0.2,0,0.3,0,0.4-0.1c0.1-0.1,0.1-0.2,0.1-0.5v-0.5c-0.1,0.1-0.2,0.2-0.3,0.3c-0.2,0.1-0.4,0.1-0.6,0.1
			c-0.4,0-0.7-0.2-1-0.5c-0.2-0.3-0.3-0.6-0.3-1c0-0.5,0.1-0.8,0.3-1.1c0.2-0.3,0.5-0.4,0.9-0.4c0.2,0,0.4,0,0.6,0.1
			c0.2,0.1,0.3,0.2,0.4,0.4V21z M67.2,22.5c0,0.2,0,0.4,0.1,0.5c0.1,0.1,0.2,0.2,0.4,0.2c0.1,0,0.3-0.1,0.4-0.2
			c0.1-0.1,0.1-0.3,0.1-0.5c0-0.2-0.1-0.4-0.2-0.5c-0.1-0.1-0.2-0.2-0.4-0.2s-0.3,0.1-0.4,0.2C67.3,22,67.2,22.2,67.2,22.5z"/>
		<path class="st1" d="M71.2,22l-1.1-0.1c0-0.2,0.1-0.4,0.2-0.5c0.1-0.1,0.2-0.2,0.3-0.3c0.1-0.1,0.3-0.1,0.4-0.1c0.2,0,0.4,0,0.6,0
			c0.4,0,0.6,0,0.9,0.1c0.2,0,0.4,0.1,0.5,0.2c0.1,0.1,0.2,0.2,0.2,0.4c0.1,0.2,0.1,0.3,0.1,0.5v1.4c0,0.1,0,0.3,0,0.3
			c0,0.1,0.1,0.2,0.1,0.3h-1.1c0-0.1-0.1-0.1-0.1-0.2c0,0,0-0.1,0-0.2c-0.2,0.1-0.3,0.3-0.5,0.3c-0.2,0.1-0.5,0.1-0.7,0.1
			c-0.4,0-0.6-0.1-0.8-0.3c-0.2-0.2-0.3-0.4-0.3-0.6c0-0.2,0.1-0.4,0.2-0.6c0.1-0.2,0.4-0.3,0.8-0.3c0.4-0.1,0.7-0.2,0.9-0.2
			c0.1,0,0.3-0.1,0.4-0.1c0-0.1,0-0.2-0.1-0.3c-0.1-0.1-0.2-0.1-0.3-0.1c-0.2,0-0.3,0-0.4,0.1C71.4,21.7,71.3,21.8,71.2,22z
			 M72.3,22.6c-0.2,0.1-0.3,0.1-0.5,0.2c-0.2,0.1-0.4,0.1-0.5,0.2c-0.1,0.1-0.1,0.1-0.1,0.2c0,0.1,0,0.2,0.1,0.2
			c0.1,0.1,0.2,0.1,0.3,0.1c0.1,0,0.3,0,0.4-0.1c0.1-0.1,0.2-0.1,0.2-0.2c0-0.1,0.1-0.2,0.1-0.4V22.6z"/>
		<path class="st1" d="M74.1,21h1.1v0.5c0.2-0.2,0.3-0.4,0.5-0.4c0.2-0.1,0.4-0.1,0.6-0.1c0.3,0,0.6,0.1,0.8,0.3
			c0.2,0.2,0.3,0.5,0.3,0.9v2h-1.2v-1.7c0-0.2,0-0.3-0.1-0.4c-0.1-0.1-0.2-0.1-0.3-0.1c-0.1,0-0.3,0.1-0.3,0.2
			c-0.1,0.1-0.1,0.3-0.1,0.6V24h-1.2V21z"/>
		<path class="st1" d="M79.1,22L78,21.8c0-0.2,0.1-0.4,0.2-0.5c0.1-0.1,0.2-0.2,0.3-0.3c0.1-0.1,0.3-0.1,0.4-0.1c0.2,0,0.4,0,0.6,0
			c0.4,0,0.6,0,0.9,0.1c0.2,0,0.4,0.1,0.5,0.2c0.1,0.1,0.2,0.2,0.2,0.4c0.1,0.2,0.1,0.3,0.1,0.5v1.4c0,0.1,0,0.3,0,0.3
			c0,0.1,0.1,0.2,0.1,0.3h-1.1c0-0.1-0.1-0.1-0.1-0.2c0,0,0-0.1,0-0.2c-0.2,0.1-0.3,0.3-0.5,0.3c-0.2,0.1-0.5,0.1-0.7,0.1
			c-0.4,0-0.6-0.1-0.8-0.3c-0.2-0.2-0.3-0.4-0.3-0.6c0-0.2,0.1-0.4,0.2-0.6c0.1-0.2,0.4-0.3,0.8-0.3c0.4-0.1,0.7-0.2,0.9-0.2
			c0.1,0,0.3-0.1,0.4-0.1c0-0.1,0-0.2-0.1-0.3c-0.1-0.1-0.2-0.1-0.3-0.1c-0.2,0-0.3,0-0.4,0.1C79.3,21.7,79.2,21.8,79.1,22z
			 M80.2,22.6c-0.2,0.1-0.3,0.1-0.5,0.2c-0.2,0.1-0.4,0.1-0.5,0.2c-0.1,0.1-0.1,0.1-0.1,0.2c0,0.1,0,0.2,0.1,0.2
			c0.1,0.1,0.2,0.1,0.3,0.1c0.1,0,0.3,0,0.4-0.1c0.1-0.1,0.2-0.1,0.2-0.2c0-0.1,0.1-0.2,0.1-0.4V22.6z"/>
		<path class="st1" d="M82,21h1.1v0.5c0.2-0.2,0.3-0.4,0.5-0.4c0.2-0.1,0.4-0.1,0.6-0.1c0.3,0,0.6,0.1,0.8,0.3
			c0.2,0.2,0.3,0.5,0.3,0.9v2h-1.2v-1.7c0-0.2,0-0.3-0.1-0.4c-0.1-0.1-0.2-0.1-0.3-0.1c-0.1,0-0.3,0.1-0.3,0.2
			c-0.1,0.1-0.1,0.3-0.1,0.6V24H82V21z"/>
	</g>
	<g>
		<path class="st1" d="M46.4,26.9h1.3v1.6l1.4-1.6h1.7l-1.5,1.6l1.6,2.6h-1.6l-0.9-1.7l-0.7,0.7v1h-1.3V26.9z"/>
		<path class="st1" d="M54.4,29.9h-2.4c0,0.2,0.1,0.3,0.2,0.4c0.1,0.1,0.3,0.2,0.4,0.2c0.1,0,0.2,0,0.3-0.1c0.1,0,0.1-0.1,0.2-0.2
			l1.2,0.1c-0.2,0.3-0.4,0.5-0.6,0.7c-0.3,0.1-0.6,0.2-1.1,0.2c-0.4,0-0.7-0.1-1-0.2c-0.2-0.1-0.4-0.3-0.6-0.5
			c-0.2-0.2-0.2-0.5-0.2-0.9c0-0.5,0.2-0.9,0.5-1.2c0.3-0.3,0.7-0.4,1.3-0.4c0.4,0,0.8,0.1,1,0.2c0.3,0.1,0.4,0.3,0.6,0.6
			c0.1,0.3,0.2,0.6,0.2,1V29.9z M53.2,29.3c0-0.2-0.1-0.4-0.2-0.5c-0.1-0.1-0.2-0.1-0.4-0.1c-0.2,0-0.3,0.1-0.4,0.2
			c-0.1,0.1-0.1,0.2-0.1,0.4H53.2z"/>
		<path class="st1" d="M55,26.9h1.2v2.2l0.9-1h1.4l-1.1,1.1l1.2,2h-1.3l-0.6-1.2l-0.4,0.4v0.8H55V26.9z"/>
		<path class="st1" d="M62.1,29.9h-2.4c0,0.2,0.1,0.3,0.2,0.4c0.1,0.1,0.3,0.2,0.4,0.2c0.1,0,0.2,0,0.3-0.1c0.1,0,0.1-0.1,0.2-0.2
			l1.2,0.1c-0.2,0.3-0.4,0.5-0.6,0.7c-0.3,0.1-0.6,0.2-1.1,0.2c-0.4,0-0.7-0.1-1-0.2c-0.2-0.1-0.4-0.3-0.6-0.5
			c-0.2-0.2-0.2-0.5-0.2-0.9c0-0.5,0.2-0.9,0.5-1.2c0.3-0.3,0.7-0.4,1.3-0.4c0.4,0,0.8,0.1,1,0.2c0.3,0.1,0.4,0.3,0.6,0.6
			c0.1,0.3,0.2,0.6,0.2,1V29.9z M60.9,29.3c0-0.2-0.1-0.4-0.2-0.5c-0.1-0.1-0.2-0.1-0.4-0.1c-0.2,0-0.3,0.1-0.4,0.2
			c-0.1,0.1-0.1,0.2-0.1,0.4H60.9z"/>
		<path class="st1" d="M62.7,28.1h1.1v0.5c0.1-0.2,0.2-0.4,0.3-0.4c0.1-0.1,0.3-0.1,0.4-0.1c0.2,0,0.4,0.1,0.6,0.2L64.7,29
			c-0.1-0.1-0.2-0.1-0.3-0.1c-0.2,0-0.3,0.1-0.4,0.2c-0.1,0.2-0.2,0.5-0.2,1v1h-1.2V28.1z"/>
		<path class="st1" d="M66.5,29.1L65.3,29c0-0.2,0.1-0.4,0.2-0.5c0.1-0.1,0.2-0.2,0.3-0.3c0.1-0.1,0.3-0.1,0.4-0.1
			c0.2,0,0.4,0,0.6,0c0.4,0,0.6,0,0.9,0.1c0.2,0,0.4,0.1,0.5,0.2c0.1,0.1,0.2,0.2,0.2,0.4c0.1,0.2,0.1,0.3,0.1,0.5v1.4
			c0,0.1,0,0.3,0,0.3c0,0.1,0.1,0.2,0.1,0.3h-1.1c0-0.1-0.1-0.1-0.1-0.2c0,0,0-0.1,0-0.2c-0.2,0.1-0.3,0.3-0.5,0.3
			c-0.2,0.1-0.5,0.1-0.7,0.1c-0.4,0-0.6-0.1-0.8-0.3c-0.2-0.2-0.3-0.4-0.3-0.6c0-0.2,0.1-0.4,0.2-0.6c0.1-0.2,0.4-0.3,0.8-0.3
			c0.4-0.1,0.7-0.2,0.9-0.2c0.1,0,0.3-0.1,0.4-0.1c0-0.1,0-0.2-0.1-0.3c-0.1-0.1-0.2-0.1-0.3-0.1c-0.2,0-0.3,0-0.4,0.1
			C66.6,28.9,66.5,28.9,66.5,29.1z M67.5,29.7c-0.2,0.1-0.3,0.1-0.5,0.2c-0.2,0.1-0.4,0.1-0.5,0.2c-0.1,0.1-0.1,0.1-0.1,0.2
			c0,0.1,0,0.2,0.1,0.2c0.1,0.1,0.2,0.1,0.3,0.1c0.1,0,0.3,0,0.4-0.1c0.1-0.1,0.2-0.1,0.2-0.2c0-0.1,0.1-0.2,0.1-0.4V29.7z"/>
		<path class="st1" d="M69.1,30.3l1.2-0.1c0,0.1,0.1,0.2,0.2,0.3c0.1,0.1,0.2,0.1,0.3,0.1c0.2,0,0.3,0,0.4-0.1
			c0.1-0.1,0.1-0.1,0.1-0.2c0-0.1,0-0.2-0.1-0.2c-0.1,0-0.2-0.1-0.5-0.1c-0.4-0.1-0.7-0.1-0.9-0.2c-0.2-0.1-0.3-0.2-0.4-0.3
			c-0.1-0.1-0.2-0.3-0.2-0.5c0-0.2,0.1-0.4,0.2-0.5c0.1-0.1,0.3-0.3,0.5-0.3c0.2-0.1,0.5-0.1,0.8-0.1c0.4,0,0.6,0,0.8,0.1
			c0.2,0.1,0.3,0.1,0.4,0.3c0.1,0.1,0.2,0.3,0.3,0.5l-1.1,0.1c0-0.1-0.1-0.2-0.1-0.2c-0.1-0.1-0.2-0.1-0.3-0.1c-0.1,0-0.2,0-0.3,0.1
			c-0.1,0-0.1,0.1-0.1,0.2c0,0.1,0,0.1,0.1,0.2c0.1,0,0.2,0.1,0.5,0.1c0.4,0,0.7,0.1,0.9,0.2c0.2,0.1,0.3,0.2,0.4,0.3
			c0.1,0.1,0.2,0.3,0.2,0.5c0,0.2-0.1,0.3-0.2,0.5c-0.1,0.2-0.3,0.3-0.5,0.4c-0.2,0.1-0.5,0.1-0.9,0.1c-0.6,0-1-0.1-1.2-0.2
			C69.4,30.8,69.2,30.6,69.1,30.3z"/>
		<path class="st1" d="M74,29.1L72.9,29c0-0.2,0.1-0.4,0.2-0.5c0.1-0.1,0.2-0.2,0.3-0.3c0.1-0.1,0.3-0.1,0.4-0.1c0.2,0,0.4,0,0.6,0
			c0.4,0,0.6,0,0.9,0.1c0.2,0,0.4,0.1,0.5,0.2c0.1,0.1,0.2,0.2,0.2,0.4c0.1,0.2,0.1,0.3,0.1,0.5v1.4c0,0.1,0,0.3,0,0.3
			c0,0.1,0.1,0.2,0.1,0.3h-1.1c0-0.1-0.1-0.1-0.1-0.2c0,0,0-0.1,0-0.2c-0.2,0.1-0.3,0.3-0.5,0.3c-0.2,0.1-0.5,0.1-0.7,0.1
			c-0.4,0-0.6-0.1-0.8-0.3c-0.2-0.2-0.3-0.4-0.3-0.6c0-0.2,0.1-0.4,0.2-0.6c0.1-0.2,0.4-0.3,0.8-0.3c0.4-0.1,0.7-0.2,0.9-0.2
			c0.1,0,0.3-0.1,0.4-0.1c0-0.1,0-0.2-0.1-0.3c-0.1-0.1-0.2-0.1-0.3-0.1c-0.2,0-0.3,0-0.4,0.1C74.2,28.9,74.1,28.9,74,29.1z
			 M75.1,29.7c-0.2,0.1-0.3,0.1-0.5,0.2c-0.2,0.1-0.4,0.1-0.5,0.2C74,30.1,74,30.2,74,30.3c0,0.1,0,0.2,0.1,0.2
			c0.1,0.1,0.2,0.1,0.3,0.1c0.1,0,0.3,0,0.4-0.1c0.1-0.1,0.2-0.1,0.2-0.2c0-0.1,0.1-0.2,0.1-0.4V29.7z"/>
		<path class="st1" d="M76.9,28.1H78v0.5c0.2-0.2,0.3-0.4,0.5-0.4c0.2-0.1,0.4-0.1,0.6-0.1c0.3,0,0.6,0.1,0.8,0.3
			c0.2,0.2,0.3,0.5,0.3,0.9v2H79v-1.7c0-0.2,0-0.3-0.1-0.4c-0.1-0.1-0.2-0.1-0.3-0.1c-0.1,0-0.3,0.1-0.3,0.2
			c-0.1,0.1-0.1,0.3-0.1,0.6v1.5h-1.2V28.1z"/>
		<path class="st1" d="M82.7,29.8l1.2-0.1c0,0.2,0.1,0.4,0.2,0.5c0.1,0.2,0.3,0.3,0.6,0.3c0.2,0,0.3,0,0.4-0.1
			c0.1-0.1,0.2-0.2,0.2-0.3c0-0.1,0-0.2-0.1-0.3s-0.3-0.2-0.7-0.2c-0.6-0.1-1-0.3-1.2-0.5c-0.2-0.2-0.4-0.5-0.4-0.8
			c0-0.2,0.1-0.4,0.2-0.6c0.1-0.2,0.3-0.3,0.6-0.5c0.3-0.1,0.6-0.2,1-0.2c0.5,0,1,0.1,1.2,0.3c0.3,0.2,0.5,0.5,0.5,1l-1.2,0.1
			c0-0.2-0.1-0.3-0.2-0.4c-0.1-0.1-0.3-0.1-0.4-0.1c-0.2,0-0.3,0-0.3,0.1c-0.1,0.1-0.1,0.1-0.1,0.2c0,0.1,0,0.1,0.1,0.2
			c0.1,0.1,0.2,0.1,0.4,0.2c0.6,0.1,1,0.2,1.2,0.4c0.2,0.1,0.4,0.3,0.5,0.5c0.1,0.2,0.2,0.4,0.2,0.6c0,0.3-0.1,0.5-0.2,0.8
			c-0.2,0.2-0.4,0.4-0.6,0.5c-0.3,0.1-0.6,0.2-1,0.2c-0.7,0-1.2-0.1-1.5-0.4C82.9,30.5,82.7,30.2,82.7,29.8z"/>
		<path class="st1" d="M90.5,29.9h-2.4c0,0.2,0.1,0.3,0.2,0.4c0.1,0.1,0.3,0.2,0.4,0.2c0.1,0,0.2,0,0.3-0.1c0.1,0,0.1-0.1,0.2-0.2
			l1.2,0.1c-0.2,0.3-0.4,0.5-0.6,0.7c-0.3,0.1-0.6,0.2-1.1,0.2c-0.4,0-0.7-0.1-1-0.2c-0.2-0.1-0.4-0.3-0.6-0.5
			C87.1,30.3,87,30,87,29.6c0-0.5,0.2-0.9,0.5-1.2c0.3-0.3,0.7-0.4,1.3-0.4c0.4,0,0.8,0.1,1,0.2c0.3,0.1,0.4,0.3,0.6,0.6
			s0.2,0.6,0.2,1V29.9z M89.3,29.3c0-0.2-0.1-0.4-0.2-0.5c-0.1-0.1-0.2-0.1-0.4-0.1c-0.2,0-0.3,0.1-0.4,0.2
			c-0.1,0.1-0.1,0.2-0.1,0.4H89.3z"/>
		<path class="st1" d="M91.1,26.9h1.2v2.2l0.9-1h1.4l-1.1,1.1l1.2,2h-1.3l-0.6-1.2l-0.4,0.4v0.8h-1.2V26.9z"/>
		<path class="st1" d="M94.8,30.3l1.2-0.1c0,0.1,0.1,0.2,0.2,0.3c0.1,0.1,0.2,0.1,0.3,0.1c0.2,0,0.3,0,0.4-0.1
			c0.1-0.1,0.1-0.1,0.1-0.2c0-0.1,0-0.2-0.1-0.2c-0.1,0-0.2-0.1-0.5-0.1c-0.4-0.1-0.7-0.1-0.9-0.2c-0.2-0.1-0.3-0.2-0.4-0.3
			C95,29.3,95,29.2,95,29c0-0.2,0.1-0.4,0.2-0.5c0.1-0.1,0.3-0.3,0.5-0.3c0.2-0.1,0.5-0.1,0.8-0.1c0.4,0,0.6,0,0.8,0.1
			c0.2,0.1,0.3,0.1,0.4,0.3c0.1,0.1,0.2,0.3,0.3,0.5l-1.1,0.1c0-0.1-0.1-0.2-0.1-0.2c-0.1-0.1-0.2-0.1-0.3-0.1c-0.1,0-0.2,0-0.3,0.1
			c-0.1,0-0.1,0.1-0.1,0.2c0,0.1,0,0.1,0.1,0.2c0.1,0,0.2,0.1,0.5,0.1c0.4,0,0.7,0.1,0.9,0.2c0.2,0.1,0.3,0.2,0.4,0.3
			c0.1,0.1,0.2,0.3,0.2,0.5c0,0.2-0.1,0.3-0.2,0.5c-0.1,0.2-0.3,0.3-0.5,0.4c-0.2,0.1-0.5,0.1-0.9,0.1c-0.6,0-1-0.1-1.2-0.2
			C95.1,30.8,94.9,30.6,94.8,30.3z"/>
		<path class="st1" d="M101.9,31.2h-1.1v-0.5c-0.2,0.2-0.3,0.4-0.5,0.4c-0.2,0.1-0.4,0.1-0.6,0.1c-0.3,0-0.6-0.1-0.8-0.3
			c-0.2-0.2-0.3-0.5-0.3-0.9v-2h1.2v1.7c0,0.2,0,0.3,0.1,0.4c0.1,0.1,0.2,0.1,0.3,0.1c0.1,0,0.3-0.1,0.3-0.2
			c0.1-0.1,0.1-0.3,0.1-0.6v-1.5h1.2V31.2z"/>
		<path class="st1" d="M103.7,29.1l-1.1-0.1c0-0.2,0.1-0.4,0.2-0.5c0.1-0.1,0.2-0.2,0.3-0.3c0.1-0.1,0.3-0.1,0.4-0.1
			c0.2,0,0.4,0,0.6,0c0.4,0,0.6,0,0.9,0.1c0.2,0,0.4,0.1,0.5,0.2c0.1,0.1,0.2,0.2,0.2,0.4c0.1,0.2,0.1,0.3,0.1,0.5v1.4
			c0,0.1,0,0.3,0,0.3c0,0.1,0.1,0.2,0.1,0.3h-1.1c0-0.1-0.1-0.1-0.1-0.2c0,0,0-0.1,0-0.2c-0.2,0.1-0.3,0.3-0.5,0.3
			c-0.2,0.1-0.5,0.1-0.7,0.1c-0.4,0-0.6-0.1-0.8-0.3c-0.2-0.2-0.3-0.4-0.3-0.6c0-0.2,0.1-0.4,0.2-0.6c0.1-0.2,0.4-0.3,0.8-0.3
			c0.4-0.1,0.7-0.2,0.9-0.2c0.1,0,0.3-0.1,0.4-0.1c0-0.1,0-0.2-0.1-0.3c-0.1-0.1-0.2-0.1-0.3-0.1c-0.2,0-0.3,0-0.4,0.1
			C103.8,28.9,103.7,28.9,103.7,29.1z M104.7,29.7c-0.2,0.1-0.3,0.1-0.5,0.2c-0.2,0.1-0.4,0.1-0.5,0.2c-0.1,0.1-0.1,0.1-0.1,0.2
			c0,0.1,0,0.2,0.1,0.2c0.1,0.1,0.2,0.1,0.3,0.1c0.1,0,0.3,0,0.4-0.1c0.1-0.1,0.2-0.1,0.2-0.2c0-0.1,0.1-0.2,0.1-0.4V29.7z"/>
		<path class="st1" d="M106.6,26.9h1.2v4.2h-1.2V26.9z"/>
	</g>
	<g>
		<g>
			<path class="st0" d="M46.1,37.1l0.8-0.1c0,0.3,0.1,0.5,0.3,0.6c0.1,0.1,0.3,0.2,0.6,0.2c0.3,0,0.5-0.1,0.6-0.2
				c0.1-0.1,0.2-0.2,0.2-0.4c0-0.1,0-0.2-0.1-0.2c-0.1-0.1-0.2-0.1-0.3-0.2c-0.1,0-0.3-0.1-0.6-0.2c-0.4-0.1-0.7-0.2-0.9-0.4
				c-0.2-0.2-0.4-0.5-0.4-0.8c0-0.2,0.1-0.4,0.2-0.6s0.3-0.3,0.5-0.4c0.2-0.1,0.5-0.1,0.8-0.1c0.5,0,0.9,0.1,1.1,0.3
				c0.3,0.2,0.4,0.5,0.4,0.9l-0.8,0c0-0.2-0.1-0.4-0.2-0.4C48.1,35,47.9,35,47.7,35c-0.2,0-0.4,0-0.6,0.1c-0.1,0.1-0.1,0.1-0.1,0.2
				c0,0.1,0,0.2,0.1,0.2c0.1,0.1,0.3,0.2,0.7,0.3c0.4,0.1,0.7,0.2,0.9,0.3s0.3,0.2,0.4,0.4c0.1,0.2,0.2,0.4,0.2,0.6
				c0,0.2-0.1,0.4-0.2,0.6c-0.1,0.2-0.3,0.3-0.5,0.4c-0.2,0.1-0.5,0.1-0.9,0.1c-0.5,0-0.9-0.1-1.2-0.4
				C46.3,37.8,46.2,37.5,46.1,37.1z"/>
			<path class="st0" d="M51,38.4V35h-1.2v-0.7h3.2V35h-1.2v3.3H51z"/>
			<path class="st0" d="M53.4,38.4v-4h0.8v4H53.4z"/>
			<path class="st0" d="M54.8,37.1l0.8-0.1c0,0.3,0.1,0.5,0.3,0.6c0.1,0.1,0.3,0.2,0.6,0.2c0.3,0,0.5-0.1,0.6-0.2
				c0.1-0.1,0.2-0.2,0.2-0.4c0-0.1,0-0.2-0.1-0.2c-0.1-0.1-0.2-0.1-0.3-0.2c-0.1,0-0.3-0.1-0.6-0.2c-0.4-0.1-0.7-0.2-0.9-0.4
				C55.1,36,55,35.7,55,35.4c0-0.2,0.1-0.4,0.2-0.6c0.1-0.2,0.3-0.3,0.5-0.4c0.2-0.1,0.5-0.1,0.8-0.1c0.5,0,0.9,0.1,1.1,0.3
				c0.3,0.2,0.4,0.5,0.4,0.9l-0.8,0c0-0.2-0.1-0.4-0.2-0.4C56.8,35,56.6,35,56.4,35c-0.2,0-0.4,0-0.6,0.1c-0.1,0.1-0.1,0.1-0.1,0.2
				c0,0.1,0,0.2,0.1,0.2c0.1,0.1,0.3,0.2,0.7,0.3c0.4,0.1,0.7,0.2,0.9,0.3c0.2,0.1,0.3,0.2,0.4,0.4c0.1,0.2,0.2,0.4,0.2,0.6
				c0,0.2-0.1,0.4-0.2,0.6c-0.1,0.2-0.3,0.3-0.5,0.4c-0.2,0.1-0.5,0.1-0.9,0.1c-0.5,0-0.9-0.1-1.2-0.4C55,37.8,54.9,37.5,54.8,37.1z
				"/>
			<path class="st0" d="M58.7,38.4v-4h0.8v4H58.7z"/>
			<path class="st0" d="M60.3,38.4v-4h1.3c0.5,0,0.8,0,1,0.1c0.2,0.1,0.4,0.2,0.6,0.4c0.2,0.2,0.2,0.5,0.2,0.8c0,0.2,0,0.5-0.1,0.6
				c-0.1,0.2-0.2,0.3-0.3,0.4c-0.1,0.1-0.3,0.2-0.4,0.2c-0.2,0-0.5,0.1-0.8,0.1h-0.5v1.5H60.3z M61.1,35v1.1h0.4
				c0.3,0,0.5,0,0.6-0.1c0.1,0,0.2-0.1,0.3-0.2c0.1-0.1,0.1-0.2,0.1-0.3c0-0.1,0-0.3-0.1-0.4c-0.1-0.1-0.2-0.2-0.3-0.2
				c-0.1,0-0.3,0-0.6,0H61.1z"/>
			<path class="st0" d="M67.3,36.9v-0.7h1.7v1.6c-0.2,0.2-0.4,0.3-0.7,0.4c-0.3,0.1-0.6,0.2-1,0.2c-0.4,0-0.8-0.1-1.1-0.3
				c-0.3-0.2-0.5-0.4-0.7-0.8c-0.2-0.3-0.2-0.7-0.2-1.1c0-0.4,0.1-0.8,0.3-1.1c0.2-0.3,0.4-0.6,0.8-0.7c0.3-0.1,0.6-0.2,1-0.2
				c0.5,0,0.9,0.1,1.2,0.3c0.3,0.2,0.5,0.5,0.5,0.9l-0.8,0.2c-0.1-0.2-0.2-0.4-0.3-0.5C67.7,35,67.5,35,67.3,35
				c-0.4,0-0.6,0.1-0.8,0.3c-0.2,0.2-0.3,0.6-0.3,1c0,0.5,0.1,0.8,0.3,1.1c0.2,0.2,0.5,0.4,0.8,0.4c0.2,0,0.3,0,0.5-0.1
				s0.3-0.1,0.4-0.2v-0.5H67.3z"/>
			<path class="st0" d="M71.7,38.4v-0.4c-0.1,0.2-0.2,0.3-0.4,0.4c-0.2,0.1-0.4,0.1-0.5,0.1c-0.2,0-0.4,0-0.5-0.1
				c-0.2-0.1-0.3-0.2-0.3-0.4c-0.1-0.2-0.1-0.4-0.1-0.6v-1.8h0.8v1.3c0,0.4,0,0.7,0,0.7c0,0.1,0.1,0.2,0.2,0.2
				c0.1,0.1,0.2,0.1,0.3,0.1c0.1,0,0.2,0,0.4-0.1c0.1-0.1,0.2-0.2,0.2-0.3c0-0.1,0.1-0.4,0.1-0.8v-1.2h0.8v2.9H71.7z"/>
			<path class="st0" d="M75.8,38.4h-0.8v-1.5c0-0.3,0-0.5,0-0.6c0-0.1-0.1-0.2-0.2-0.2C74.8,36,74.7,36,74.6,36
				c-0.1,0-0.3,0-0.4,0.1s-0.2,0.2-0.2,0.3c0,0.1-0.1,0.3-0.1,0.7v1.3h-0.8v-2.9h0.7v0.4c0.3-0.3,0.6-0.5,1-0.5c0.2,0,0.3,0,0.5,0.1
				c0.1,0.1,0.2,0.1,0.3,0.2c0.1,0.1,0.1,0.2,0.1,0.3c0,0.1,0,0.3,0,0.5V38.4z"/>
			<path class="st0" d="M77.2,36.3l-0.7-0.1c0.1-0.3,0.2-0.5,0.4-0.6c0.2-0.1,0.5-0.2,0.9-0.2c0.3,0,0.6,0,0.8,0.1
				c0.2,0.1,0.3,0.2,0.4,0.3c0.1,0.1,0.1,0.4,0.1,0.7l0,0.9c0,0.3,0,0.4,0,0.6c0,0.1,0.1,0.3,0.1,0.4h-0.8c0-0.1,0-0.1-0.1-0.2
				c0,0,0-0.1,0-0.1c-0.1,0.1-0.3,0.2-0.4,0.3s-0.3,0.1-0.5,0.1c-0.3,0-0.5-0.1-0.7-0.2c-0.2-0.2-0.3-0.4-0.3-0.6
				c0-0.2,0-0.3,0.1-0.4c0.1-0.1,0.2-0.2,0.3-0.3c0.1-0.1,0.3-0.1,0.6-0.2c0.4-0.1,0.6-0.1,0.7-0.2v-0.1c0-0.1,0-0.3-0.1-0.3
				C78,36,77.9,36,77.7,36c-0.1,0-0.2,0-0.3,0.1C77.3,36.1,77.2,36.2,77.2,36.3z M78.2,37c-0.1,0-0.3,0.1-0.5,0.1
				c-0.2,0-0.4,0.1-0.4,0.1c-0.1,0.1-0.1,0.2-0.1,0.3c0,0.1,0,0.2,0.1,0.3c0.1,0.1,0.2,0.1,0.3,0.1c0.1,0,0.3,0,0.4-0.1
				c0.1-0.1,0.2-0.2,0.2-0.3c0-0.1,0-0.2,0-0.4V37z"/>
			<path class="st0" d="M81.3,38.4v-4h0.8l1.6,2.7v-2.7h0.7v4h-0.8L82,35.7v2.6H81.3z"/>
			<path class="st0" d="M87.2,38.4v-0.4c-0.1,0.2-0.2,0.3-0.4,0.4c-0.2,0.1-0.4,0.1-0.5,0.1c-0.2,0-0.4,0-0.5-0.1
				c-0.2-0.1-0.3-0.2-0.3-0.4c-0.1-0.2-0.1-0.4-0.1-0.6v-1.8h0.8v1.3c0,0.4,0,0.7,0,0.7c0,0.1,0.1,0.2,0.2,0.2
				c0.1,0.1,0.2,0.1,0.3,0.1c0.1,0,0.2,0,0.4-0.1c0.1-0.1,0.2-0.2,0.2-0.3c0-0.1,0.1-0.4,0.1-0.8v-1.2h0.8v2.9H87.2z"/>
			<path class="st0" d="M88.4,37.5l0.8-0.1c0,0.1,0.1,0.3,0.2,0.3c0.1,0.1,0.2,0.1,0.4,0.1c0.2,0,0.3,0,0.4-0.1
				c0.1-0.1,0.1-0.1,0.1-0.2c0-0.1,0-0.1-0.1-0.1c0,0-0.1-0.1-0.3-0.1c-0.6-0.1-1-0.3-1.2-0.4c-0.2-0.2-0.3-0.4-0.3-0.7
				c0-0.3,0.1-0.5,0.3-0.6c0.2-0.2,0.5-0.3,0.9-0.3c0.4,0,0.7,0.1,0.9,0.2c0.2,0.1,0.3,0.3,0.4,0.6l-0.7,0.1c0-0.1-0.1-0.2-0.2-0.3
				c-0.1-0.1-0.2-0.1-0.4-0.1c-0.2,0-0.3,0-0.4,0.1c-0.1,0-0.1,0.1-0.1,0.2c0,0.1,0,0.1,0.1,0.1c0.1,0.1,0.3,0.1,0.7,0.2
				c0.4,0.1,0.7,0.2,0.9,0.3c0.2,0.1,0.2,0.3,0.2,0.6c0,0.3-0.1,0.5-0.3,0.7c-0.2,0.2-0.5,0.3-1,0.3c-0.4,0-0.7-0.1-0.9-0.2
				C88.7,38,88.5,37.8,88.4,37.5z"/>
			<path class="st0" d="M92.4,36.3l-0.7-0.1c0.1-0.3,0.2-0.5,0.4-0.6c0.2-0.1,0.5-0.2,0.9-0.2c0.3,0,0.6,0,0.8,0.1
				c0.2,0.1,0.3,0.2,0.4,0.3c0.1,0.1,0.1,0.4,0.1,0.7l0,0.9c0,0.3,0,0.4,0,0.6c0,0.1,0.1,0.3,0.1,0.4h-0.8c0-0.1,0-0.1-0.1-0.2
				c0,0,0-0.1,0-0.1c-0.1,0.1-0.3,0.2-0.4,0.3s-0.3,0.1-0.5,0.1c-0.3,0-0.5-0.1-0.7-0.2c-0.2-0.2-0.3-0.4-0.3-0.6
				c0-0.2,0-0.3,0.1-0.4c0.1-0.1,0.2-0.2,0.3-0.3c0.1-0.1,0.3-0.1,0.6-0.2c0.4-0.1,0.6-0.1,0.7-0.2v-0.1c0-0.1,0-0.3-0.1-0.3
				C93.2,36,93.1,36,92.9,36c-0.1,0-0.2,0-0.3,0.1C92.5,36.1,92.4,36.2,92.4,36.3z M93.4,37c-0.1,0-0.3,0.1-0.5,0.1
				c-0.2,0-0.4,0.1-0.4,0.1c-0.1,0.1-0.1,0.2-0.1,0.3c0,0.1,0,0.2,0.1,0.3c0.1,0.1,0.2,0.1,0.3,0.1c0.1,0,0.3,0,0.4-0.1
				c0.1-0.1,0.2-0.2,0.2-0.3c0-0.1,0-0.2,0-0.4V37z"/>
			<path class="st0" d="M97.6,38.4h-0.8v-1.5c0-0.3,0-0.5,0-0.6c0-0.1-0.1-0.2-0.2-0.2C96.5,36,96.4,36,96.3,36
				c-0.1,0-0.3,0-0.4,0.1s-0.2,0.2-0.2,0.3c0,0.1-0.1,0.3-0.1,0.7v1.3h-0.8v-2.9h0.7v0.4c0.3-0.3,0.6-0.5,1-0.5c0.2,0,0.3,0,0.5,0.1
				c0.1,0.1,0.2,0.1,0.3,0.2c0.1,0.1,0.1,0.2,0.1,0.3c0,0.1,0,0.3,0,0.5V38.4z"/>
			<path class="st0" d="M99.7,35.5v0.6h-0.5v1.2c0,0.2,0,0.4,0,0.4c0,0,0,0.1,0.1,0.1c0,0,0.1,0,0.1,0c0.1,0,0.2,0,0.3-0.1l0.1,0.6
				c-0.2,0.1-0.4,0.1-0.6,0.1c-0.1,0-0.3,0-0.4-0.1c-0.1,0-0.2-0.1-0.2-0.2c-0.1-0.1-0.1-0.2-0.1-0.3c0-0.1,0-0.3,0-0.5v-1.3H98
				v-0.6h0.4v-0.6l0.8-0.4v1H99.7z"/>
			<path class="st0" d="M100.8,36.3l-0.7-0.1c0.1-0.3,0.2-0.5,0.4-0.6c0.2-0.1,0.5-0.2,0.9-0.2c0.3,0,0.6,0,0.8,0.1
				c0.2,0.1,0.3,0.2,0.4,0.3c0.1,0.1,0.1,0.4,0.1,0.7l0,0.9c0,0.3,0,0.4,0,0.6c0,0.1,0.1,0.3,0.1,0.4H102c0-0.1,0-0.1-0.1-0.2
				c0,0,0-0.1,0-0.1c-0.1,0.1-0.3,0.2-0.4,0.3c-0.1,0.1-0.3,0.1-0.5,0.1c-0.3,0-0.5-0.1-0.7-0.2c-0.2-0.2-0.3-0.4-0.3-0.6
				c0-0.2,0-0.3,0.1-0.4c0.1-0.1,0.2-0.2,0.3-0.3c0.1-0.1,0.3-0.1,0.6-0.2c0.4-0.1,0.6-0.1,0.7-0.2v-0.1c0-0.1,0-0.3-0.1-0.3
				c-0.1-0.1-0.2-0.1-0.4-0.1c-0.1,0-0.2,0-0.3,0.1C100.9,36.1,100.8,36.2,100.8,36.3z M101.8,37c-0.1,0-0.3,0.1-0.5,0.1
				c-0.2,0-0.4,0.1-0.4,0.1c-0.1,0.1-0.1,0.2-0.1,0.3c0,0.1,0,0.2,0.1,0.3c0.1,0.1,0.2,0.1,0.3,0.1c0.1,0,0.3,0,0.4-0.1
				c0.1-0.1,0.2-0.2,0.2-0.3c0-0.1,0-0.2,0-0.4V37z"/>
			<path class="st0" d="M104,38.4h-0.8v-2.9h0.7v0.4c0.1-0.2,0.2-0.3,0.3-0.4c0.1-0.1,0.2-0.1,0.3-0.1c0.2,0,0.3,0,0.5,0.1l-0.2,0.7
				c-0.1-0.1-0.2-0.1-0.4-0.1c-0.1,0-0.2,0-0.3,0.1c-0.1,0.1-0.1,0.2-0.2,0.3c0,0.2-0.1,0.5-0.1,1V38.4z"/>
			<path class="st0" d="M106,36.3l-0.7-0.1c0.1-0.3,0.2-0.5,0.4-0.6c0.2-0.1,0.5-0.2,0.9-0.2c0.3,0,0.6,0,0.8,0.1
				c0.2,0.1,0.3,0.2,0.4,0.3c0.1,0.1,0.1,0.4,0.1,0.7l0,0.9c0,0.3,0,0.4,0,0.6c0,0.1,0.1,0.3,0.1,0.4h-0.8c0-0.1,0-0.1-0.1-0.2
				c0,0,0-0.1,0-0.1c-0.1,0.1-0.3,0.2-0.4,0.3c-0.1,0.1-0.3,0.1-0.5,0.1c-0.3,0-0.5-0.1-0.7-0.2c-0.2-0.2-0.3-0.4-0.3-0.6
				c0-0.2,0-0.3,0.1-0.4c0.1-0.1,0.2-0.2,0.3-0.3c0.1-0.1,0.3-0.1,0.6-0.2c0.4-0.1,0.6-0.1,0.7-0.2v-0.1c0-0.1,0-0.3-0.1-0.3
				c-0.1-0.1-0.2-0.1-0.4-0.1c-0.1,0-0.2,0-0.3,0.1C106.2,36.1,106.1,36.2,106,36.3z M107.1,37c-0.1,0-0.3,0.1-0.5,0.1
				c-0.2,0-0.4,0.1-0.4,0.1c-0.1,0.1-0.1,0.2-0.1,0.3c0,0.1,0,0.2,0.1,0.3c0.1,0.1,0.2,0.1,0.3,0.1c0.1,0,0.3,0,0.4-0.1
				c0.1-0.1,0.2-0.2,0.2-0.3c0-0.1,0-0.2,0-0.4V37z"/>
		</g>
	</g>
	<path class="st0" d="M4.7,26.5c0.4,0.9,1.4,1.6,1.4,1.6c-2.4-0.6-4.1-2-5.1-4.1c-0.3-0.6-0.5-1.2-0.6-1.8C0.5,21.6,0.7,21,1,20.4
		c2.4-5.1,9.5-10.2,21-14.9c4.1-1.7,8-3,10.9-4c2.6-0.8,4.5-1.4,5-1.5l-1.8,3.9l3.4,1.6c-0.3,0.1-7.7,2.1-15.4,5.3
		C14.3,14.9,2.8,21.5,4.7,26.5z"/>
	<path class="st2" d="M36.4,14.5c0,3.7-0.3,8.1-1.5,10.8C32,31.9,25,37,22.3,38.8c-2.7-1.8-9.7-6.9-12.7-13.6C8,21.7,8,15,8.2,11.2
		C14.9,10.4,20,8,22.3,6.8c2.2,1.2,7.4,3.6,14.1,4.4C36.4,12.1,36.4,13.3,36.4,14.5z"/>
	<path class="st1" d="M40.6,8.9L40.5,7l-1.9-0.1c-1-0.1-1.9-0.2-2.8-0.3c-4-0.6-7.3-1.8-9.4-2.8c-1.8-0.8-2.8-1.4-2.8-1.5l-1.2-0.8
		l-1.2,0.8c-0.1,0-6.4,4-15.1,4.6L4.1,7L3.9,8.9c0,0.3-0.3,3.6-0.2,7.6c0.1,2.6,0.3,5.4,0.9,7.8c0.2,1,0.5,1.9,0.9,2.7
		c0.2,0.4,0.3,0.7,0.5,1.1c1.1,2.1,2.4,4,3.9,5.8c4.9,5.7,10.9,9.2,11.2,9.4l1.1,0.6l1.1-0.6c0.2-0.1,3.1-1.8,6.4-4.6
		c3.3-2.8,7.1-6.8,9.2-11.7c0.6-1.4,1.1-3.2,1.4-5c0.4-2.4,0.5-4.9,0.5-7.1C40.9,11.7,40.6,9.2,40.6,8.9z M34.9,25.3
		C32,31.9,25,37,22.3,38.8c-1.5-1-4.2-2.9-6.8-5.5c-0.1-0.1-0.2-0.2-0.4-0.4h0c-0.1-0.1-0.3-0.3-0.4-0.4c-0.1-0.1-0.3-0.3-0.4-0.4
		c-0.1-0.1-0.3-0.3-0.4-0.4c-0.1-0.1-0.2-0.2-0.3-0.4c-0.2-0.3-0.5-0.6-0.7-0.8c-0.3-0.4-0.6-0.7-0.8-1.1c-0.1-0.2-0.3-0.4-0.4-0.6
		c-0.1-0.2-0.2-0.3-0.3-0.5c0-0.1-0.1-0.1-0.1-0.2C11,28,11,27.8,10.9,27.7c-0.1-0.2-0.2-0.3-0.3-0.5c-0.1-0.2-0.3-0.5-0.4-0.7
		c-0.1-0.1-0.1-0.3-0.2-0.4c-0.1-0.2-0.2-0.5-0.4-0.7c-0.1-0.1-0.1-0.2-0.1-0.3c-0.1-0.2-0.2-0.5-0.3-0.8c0-0.1-0.1-0.2-0.1-0.3
		c0,0,0,0,0,0c-0.3-1.2-0.6-2.7-0.7-4.1c-0.2-1.6-0.2-3.2-0.2-4.7c0,0,0-0.1,0-0.1v0c0-0.7,0-1.3,0-2c0-0.6,0-1.1,0.1-1.6
		c0.4,0,0.8-0.1,1.3-0.2c0.7-0.1,1.3-0.2,1.9-0.3c2-0.4,3.7-0.9,5.3-1.4c2.5-0.9,4.4-1.8,5.6-2.4c0.9,0.5,2.4,1.2,4.3,2
		c0.4,0.1,0.8,0.3,1.2,0.4c0.1,0,0.2,0.1,0.3,0.1c1,0.3,2.1,0.7,3.3,1c1.6,0.4,3.3,0.7,5.1,0.9c0,0,0,0,0,0c0,0.9,0.1,2.1,0.1,3.3
		c0,1,0,2-0.1,3.1c0,0.1,0,0.2,0,0.2c-0.1,1.1-0.2,2.3-0.3,3.4C35.8,22.7,35.4,24.1,34.9,25.3C35,25.2,34.9,25.2,34.9,25.3z"/>
	<path class="st0" d="M20.3,14.8c0,3.3-2.7,6-6,6.1c0,0-0.1,0-0.1,0c0,0-0.1,0-0.1,0c0,0,0,0,0,0c-3.3-0.1-6-2.9-6-6.1
		c0-1.8,0.8-3.4,2-4.5c1.1-1,2.5-1.6,4.1-1.6c0.5,0,1.1,0.1,1.6,0.2C18.3,9.6,20.3,12,20.3,14.8z"/>
	<path class="st0" d="M20.3,26.9c0,3-2.3,5.6-5.2,6c-2.1-2.2-4.2-4.8-5.5-7.7c-0.2-0.5-0.4-1-0.5-1.5c0.3-0.5,0.7-0.9,1.1-1.3
		c1.1-1,2.5-1.6,4.1-1.6h0c0.5,0,1.1,0.1,1.6,0.2C18.3,21.8,20.3,24.2,20.3,26.9z"/>
	<path class="st0" d="M21.3,13c0,2.3,2,4.4,4.4,4.4c2.4,0,4.4-2,4.4-4.3c0-2.4-2-4.4-4.4-4.4C23.3,8.6,21.4,10.6,21.3,13z"/>
	<path class="st0" d="M21.3,21.7c0,2.3,2,4.4,4.4,4.4c2.4,0,4.4-2,4.4-4.3c0-2.4-2-4.4-4.4-4.4C23.3,17.4,21.4,19.3,21.3,21.7z"/>
	<path class="st0" d="M36.3,11.3c0,0.3,0,0.5-0.1,0.8c-0.3,1.1-1.4,1.9-2.5,1.9h0c-1.4,0-2.7-1.2-2.7-2.7c0-0.6,0.2-1.1,0.5-1.6
		c0.5-0.6,1.3-1.1,2.1-1.1C35.1,8.7,36.3,9.9,36.3,11.3z"/>
	<path class="st0" d="M36.3,16.7L36.3,16.7c0,0.4-0.1,0.7-0.2,1.1c-0.4,0.9-1.4,1.6-2.4,1.6c-1.4,0-2.7-1.2-2.7-2.6v0
		c0,0,0-0.1,0-0.1c0.1-1.4,1.3-2.5,2.7-2.5h0c1.2,0,2.2,0.8,2.5,1.9c0.1,0.2,0.1,0.4,0.1,0.7C36.3,16.6,36.3,16.6,36.3,16.7z"/>
	<rect x="21.3" y="21.6" class="st0" width="8.7" height="4.5"/>
	<rect x="31" y="16.7" class="st0" width="5.3" height="4.5"/>
	<path class="st1" d="M15.1,32.9c-0.3,0-0.5,0.1-0.8,0.1c0,0-0.1,0-0.1,0c0,0-0.1,0-0.1,0c0,0,0,0,0,0c-3.3-0.1-6-2.9-6-6.1
		c0-1.2,0.4-2.3,0.9-3.2c0.2,0.6,0.3,1.1,0.5,1.5C10.9,28.2,12.9,30.8,15.1,32.9z"/>
	<path class="st3" d="M46.3,18.1c-1.7,1.2-3.7,2.5-6,3.9c-1.7,1-3.5,2.1-5.4,3.2c-2,1.1-4,2.2-6,3.1c-5,2.4-9.4,4.1-13.2,4.9
		c-0.1,0-0.3,0.1-0.4,0.1c-0.7,0.2-1.4,0.3-2.1,0.4c-1.2,0.2-2.4,0.2-3.4,0.2c-0.1,0-0.2,0-0.3,0c-1,0-1.8-0.2-2.7-0.4
		c-2.8-0.7-4.9-2.4-6-4.9c-1-2.1-1.2-4.3-0.6-6.5c0.1,0.6,0.3,1.2,0.6,1.8c1,2.1,2.7,3.5,5.1,4.1c0.7,0.2,1.4,0.3,2.3,0.3
		c0.3,0,0.5,0,0.8,0c0.7,0,1.4-0.1,2.1-0.2c0.7-0.1,1.5-0.2,2.3-0.4c1.5-0.3,3.2-0.8,5-1.4c0.5-0.2,1-0.3,1.5-0.5
		c0.1,0,0.1,0,0.2-0.1c0.2-0.1,0.3-0.1,0.5-0.2c0.2-0.1,0.4-0.2,0.7-0.3c0.5-0.2,0.9-0.4,1.4-0.6c1.2-0.5,2.5-1.1,3.7-1.7
		c0.7-0.3,1.3-0.7,2-1c0.3-0.2,0.7-0.4,1-0.5c0,0,0,0,0,0c0.2-0.1,0.3-0.2,0.5-0.3c0.3-0.2,0.6-0.3,1-0.5c0.2-0.1,0.4-0.2,0.5-0.3
		c0.7-0.4,1.5-0.8,2.2-1.2c0.3-0.2,0.6-0.3,0.8-0.5c0.1,0,0.1-0.1,0.2-0.1c0.4-0.2,0.8-0.5,1.2-0.7c0.1-0.1,0.2-0.1,0.4-0.2
		c0,0,0,0,0,0c1.6-1,3.1-1.9,4.5-2.9c0.9-0.6,1.7-1.1,2.4-1.7l-0.8,4.1L46.3,18.1z"/>
</g>
</svg>
